<?xml version="1.0" encoding="utf-8"?>
<!-- Generator: Adobe Illustrator 20.1.0, SVG Export Plug-In . SVG Version: 6.00 Build 0)  -->
<svg version="1.1" id="Layer_1" xmlns="http://www.w3.org/2000/svg" xmlns:xlink="http://www.w3.org/1999/xlink" x="0px" y="0px"
	 viewBox="0 0 480 480" style="enable-background:new 0 0 480 480;" xml:space="preserve">
<style type="text/css">
	.st0{fill:#BE450F;}
</style>
<title>Artboard 2 copy 2</title>
<g>
	<path class="st0" d="M168,124c0-6.6-5.4-12-12-12s-12,5.4-12,12c0,6.6,5.4,12,12,12C162.6,136,168,130.6,168,124z"/>
	<path class="st0" d="M228,136c6.6,0,12-5.4,12-12c0-6.6-5.4-12-12-12s-12,5.4-12,12C216,130.6,221.4,136,228,136z"/>
	<path class="st0" d="M192,184c13.2,0,24-10.8,24-24h-16c0,4.4-3.6,8-8,8s-8-3.6-8-8h-16C168,173.3,178.8,184,192,184z"/>
	<path class="st0" d="M118.6,376c-12.4-0.1-22.5,9.8-22.7,22.1c0,0.9,0,1.7,0.1,2.6c1.2,13.1,12.2,23.2,25.4,23.3
		c12.4,0.1,22.5-9.8,22.7-22.1c0-0.9,0-1.7-0.1-2.6C142.7,386.2,131.8,376.1,118.6,376z M126.4,405.9c-1.3,1.4-3.1,2.1-5,2.1
		c-4.9-0.2-8.9-3.9-9.4-8.7c-0.2-1.9,0.4-3.8,1.6-5.2c1.3-1.4,3.1-2.1,5-2.1c4.9,0.2,8.9,3.9,9.4,8.7
		C128.2,402.6,127.7,404.5,126.4,405.9L126.4,405.9z"/>
	<path class="st0" d="M480,424c0-30.9-25.1-56-56-56h-7.7c-4.4,0.1-8.1-3.4-8.3-7.8c-0.1-4.4,3.3-8.1,7.8-8.2c0.1,0,0.2,0,0.2,0
		h23.5c13.4,0,24.8-11,24.5-24.4c-0.2-13.1-10.9-23.6-24-23.6h-24c-2.8,0-5.6,0.2-8.3,0.6c1.2-10.2-0.7-20.6-5.3-29.8l-2.4-4.7V240
		c0-4.4-3.5-7.9-7.8-8c-16.2-0.1-30.9,9.3-37.7,24h-21c-6.8-14.7-21.5-24.1-37.7-24c-4.4,0.1-7.9,3.6-7.8,8v18.7
		c-5.1-1.8-10.5-2.7-16-2.7h-40v-34.7c19.9-11.4,33.9-30.8,38.4-53.3h1c17.6,0,32.4-13.9,32.6-31.5c0.2-11.6-6-22.4-16-28.2v-15
		c25-8.8,38.1-36.2,29.3-61.2S281.1-6.1,256.1,2.7c-5.1,1.8-9.9,4.5-14.2,7.9C229,3.6,214.6,0,200,0h-16c-48.6,0-88,39.4-88,88v20.3
		c-10,5.8-16.2,16.6-16,28.2C80.3,154.1,95,168,112.6,168h0.9c4.5,22.5,18.5,41.9,38.4,53.3V256h-44.2c-24.5,0-45,18.4-47.7,42.7
		L57.7,320H22.2C10,320,0,330,0,342.2c0,1.8,0.2,3.6,0.7,5.4l28.4,120c1.7,7.2,8.2,12.3,15.6,12.3H424c3.1,0,6.2-0.3,9.3-0.8
		c0,0,0.1,0,0.1,0l0.1,0C460.4,474.7,480.1,451.3,480,424z M452.3,395.7c15.6,15.6,15.6,41,0,56.6c-3.5,3.5-7.7,6.4-12.3,8.4v-18.8
		c0.3-0.3,0.7-0.6,1-0.9c9.4-9.4,9.3-24.6,0-34c-2.7-2.7-5.9-4.7-9.5-5.8c-3.4-6.4-7.7-12.2-12.9-17.2h5.4
		C434.6,384,444.8,388.2,452.3,395.7z M402.4,322.4c4.3-1.6,8.9-2.4,13.6-2.4h24c4.4,0,8,3.6,8,8s-3.6,8-8,8h-24
		c-10.7,0-20.2,7.1-23.1,17.4l-4.5-13.5C394.3,335.2,399.1,329.2,402.4,322.4z M304,272v-22.7c7.6,2.5,13.5,8.4,16,16l0.4,1.2
		c1.1,3.3,4.1,5.5,7.6,5.5h32c3.4,0,6.5-2.2,7.6-5.5l0.4-1.2c2.5-7.6,8.4-13.5,16-16V272c0,1.2,0.3,2.5,0.8,3.6l3.2,6.4
		c9.2,18.4,1.8,40.8-16.7,50c-5.2,2.6-10.9,3.9-16.7,3.9h-21.4c-20.6,0-37.3-16.7-37.3-37.3c0-5.8,1.3-11.5,3.9-16.7l3.2-6.4
		C303.7,274.5,304,273.2,304,272z M251.6,464c1.1-3.6,1.2-7.4,0.4-11.1l-1.1-4.9h50.9c-3.1,4.8-5.1,10.3-5.6,16H251.6z M285.5,275
		c-12,24.1-4,53.4,18.5,68.2V432h-29.9c17.5-25.1,16.7-58.6-2.1-82.8V272C276.7,272,281.3,273,285.5,275L285.5,275z M256,272v80
		c0,1.9,0.7,3.7,1.9,5.2c17,20.1,17,49.6,0,69.7c-1.2,1.4-1.9,3.3-1.9,5.1h-8.7l-20.4-91.6c-1.6-7.4-6.4-13.7-13.1-17.3
		c3-1.5,5.9-3.2,8.5-5.2c8.8-6.6,15.1-15.9,18.1-26.4L246,272H256z M168,256v-27.7c15.6,4.9,32.4,4.9,48,0V256
		c0,7.8,5.7,14.5,13.5,15.8l-4.4,15.3c-4.2,14.8-17.7,25-33.1,25c-15.4,0-28.8-10.2-33.1-25l-4.4-15.3
		C162.3,270.5,168,263.9,168,256z M272,152v-32c8.8,0,16,7.2,16,16S280.8,152,272,152z M272,16c17.7,0,32,14.3,32,32
		c0,11.8-6.5,22.6-16.8,28.2c-3-21.9-14.1-41.9-31.1-55.9C260.9,17.4,266.4,16,272,16z M112,88c0-39.7,32.3-72,72-72h16
		c39.7,0,72,32.3,72,72v16h-3.1l-29.8-59.6c-2-4-6.8-5.6-10.7-3.6c-0.5,0.3-1,0.6-1.4,0.9c-0.6,0.5-63.2,50.3-108.8,60.5
		c-2.2,0.5-4.2,0.9-6.2,1.2L112,88z M96,136c0-8.8,7.2-16,16-16v32C103.2,152,96,144.8,96,136z M128,152v-35.8
		c38.4-10.8,83.3-42.6,101.2-56l26.8,53.6V152c0,35.3-28.7,64-64,64S128,187.4,128,152z M138,272l5.6,19.4c3.4,11.8,11,22,21.3,28.6
		H128v-48H138z M76,300.5c1.8-16.2,15.5-28.5,31.8-28.5h4.2v48H73.8L76,300.5z M54.1,464c-4.6,0-8.6-3.1-9.7-7.6L16.2,343.8
		c-0.1-0.5-0.2-1-0.2-1.5c0-3.4,2.8-6.2,6.2-6.2h179.3c4.7,0,8.8,3.2,9.8,7.8l25,112.6c0.7,3.4-1.4,6.7-4.7,7.5
		c-0.4,0.1-0.9,0.1-1.4,0.1H54.1z M384,464v-64h-16v64l-23.7,0c0.7-3.9,2.5-7.5,5.4-10.3c1.5-1.5,2.3-3.5,2.3-5.7v-48h-16v44.9
		c-4.5,5.4-7.2,12.1-7.8,19.1h-15.9c0.7-3.9,2.6-7.5,5.4-10.3c1.5-1.5,2.3-3.5,2.3-5.7v-97.7c4.3,1.1,8.8,1.7,13.3,1.7h21.4
		c6.7,0,13.4-1.3,19.6-3.8l10.1,30.3c0.7,2.2,2.4,4,4.6,4.9c10.3,4.1,19.2,11.2,25.4,20.4c1.6,2.4,3.1,5,4.3,7.6
		c3.5,7.4,5.2,15.4,5.2,23.6V464L384,464z"/>
	<rect x="312" y="288" class="st0" width="16" height="16"/>
	<rect x="360" y="288" class="st0" width="16" height="16"/>
</g>
</svg>
