<svg id="Layer_1" data-name="Layer 1" xmlns="http://www.w3.org/2000/svg" viewBox="0 0 480 480"><defs><style>.cls-1{fill:#be450f;}</style></defs><title>Artboard 2 copy 2</title><path class="cls-1" d="M355.08,89.52a8,8,0,0,0,0-11.31h0A206.64,206.64,0,0,0,208,17.29c-114.69,0-208,93.31-208,208s93.31,208,208,208a8,8,0,0,0,8-8V251.4l2.58-1.58A24,24,0,0,0,232,228.29V212.6ZM232,190V108.29a24,24,0,1,0-48,0V214.71l-45.23,27.67-.09.05a24,24,0,0,0,25.52,40.65L200,261.19v123.9c-84.52-4.18-152-74.26-152-159.8,0-88.23,71.78-160,160-160a158.8,158.8,0,0,1,107.34,41.35Zm-16,15.69a23.94,23.94,0,0,0-16,0V108.29a8,8,0,0,1,16,0Zm-5,30a9,9,0,1,1,1.31-.8Zm-26.52-2.52a24,24,0,0,0,8.3,13.68l-37,22.62-.09.05A8,8,0,0,1,147.18,256ZM16,225.29c0-105.87,86.13-192,192-192A190.64,190.64,0,0,1,338,84L326.66,95.31A174.69,174.69,0,0,0,208,49.29c-97,0-176,79-176,176,0,94.36,74.65,171.61,168,175.81v16C97.83,412.91,16,328.48,16,225.29Z"/><rect class="cls-1" x="144" y="98.43" width="16" height="32" transform="translate(-36.85 91.33) rotate(-30)"/><rect class="cls-1" x="97.15" y="145.29" width="16" height="32" transform="translate(-87.1 171.71) rotate(-60)"/><rect class="cls-1" x="72" y="217.29" width="32" height="16"/><rect class="cls-1" x="89.15" y="281.29" width="32" height="16" transform="translate(-130.56 91.34) rotate(-30)"/><rect class="cls-1" x="136" y="328.14" width="32" height="16" transform="translate(-215.11 299.71) rotate(-60)"/><rect class="cls-1" x="256" y="107.43" width="32" height="16" transform="translate(36.03 293.28) rotate(-60)"/><path class="cls-1" d="M419.08,75.63a8,8,0,0,0-11.31,0L266.34,217.05a8,8,0,0,0,0,11.31h0L407.77,369.79a8,8,0,0,0,11.31,0c81.23-81.23,81.23-212.93,0-294.16h0ZM283.31,222.71,390.66,115.37a160,160,0,0,1,0,214.68Zm130,130L402,341.37A176,176,0,0,0,402,104l11.33-11.33a192,192,0,0,1,0,260Z"/><rect class="cls-1" x="374.85" y="273.29" width="16" height="32" transform="translate(-59.11 476.2) rotate(-60)"/><rect class="cls-1" x="384" y="217.29" width="32" height="16"/><rect class="cls-1" x="366.85" y="153.29" width="32" height="16" transform="translate(-29.35 213.05) rotate(-30)"/><path class="cls-1" d="M253.66,251.63A8,8,0,0,0,240,257.29v200a8,8,0,0,0,8,8,206.64,206.64,0,0,0,147.08-60.92,8,8,0,0,0,0-11.31h0ZM355.34,375.94A158.7,158.7,0,0,1,256,417.09V276.6ZM256,449.13v-16a174.6,174.6,0,0,0,110.67-45.84L378,398.59A190.5,190.5,0,0,1,256,449.13Z"/><rect class="cls-1" x="288" y="360.14" width="16" height="32" transform="translate(-148.41 198.39) rotate(-30)"/></svg>