<svg id="Layer_1" data-name="Layer 1" xmlns="http://www.w3.org/2000/svg" viewBox="0 0 480 480"><defs><style>.cls-1{fill:#be450f;}</style></defs><title>Artboard 2</title><path class="cls-1" d="M13.66,242.34A8,8,0,0,0,0,248V472a8,8,0,0,0,8,8H232a8,8,0,0,0,5.66-13.66ZM16,464V267.31L212.69,464Z"/><path class="cls-1" d="M56,432h64a8,8,0,0,0,5.66-13.66l-64-64A8,8,0,0,0,48,360v64A8,8,0,0,0,56,432Zm8-52.69L100.69,416H64Z"/><rect class="cls-1" x="88" y="32" width="16" height="16"/><rect class="cls-1" x="120" y="32" width="16" height="16"/><rect class="cls-1" x="152" y="32" width="16" height="16"/><path class="cls-1" d="M164.76,144.7A7.88,7.88,0,0,0,160,152v88a8,8,0,0,0,4.75,7.31l72,32a8,8,0,0,0,6.5,0h0l72-32A8,8,0,0,0,320,240V152a7.88,7.88,0,0,0-4.76-7.3h0l-72-32a8,8,0,0,0-6.5,0l-72,32Zm67.24,115L176,234.8V164.31l56,24.89Zm72-24.89-56,24.89V189.2l56-24.89Zm-64-106L292.3,152,240,175.24,187.7,152Z"/><rect class="cls-1" x="232" y="304" width="16" height="40"/><rect class="cls-1" x="232" y="56" width="16" height="40"/><rect class="cls-1" x="112.75" y="117.44" width="16" height="37.13" transform="translate(-54.01 186.35) rotate(-64.47)"/><rect class="cls-1" x="340.69" y="128" width="37.12" height="16" transform="translate(-23.54 168.11) rotate(-25.53)"/><rect class="cls-1" x="102.19" y="256" width="37.13" height="16" transform="translate(-102 77.83) rotate(-25.53)"/><path class="cls-1" d="M472,368H424V243.31l47-47A30.63,30.63,0,1,0,427.72,153h0L424,156.69V88a8,8,0,0,0-2.34-5.66l-80-80A8,8,0,0,0,336,0H88A32,32,0,0,0,56,32V264H72V32A16,16,0,0,1,88,16H328V64a32,32,0,0,0,32,32h48v76.69L282.34,298.34a8,8,0,0,0-2.19,4.09l-8,40a8,8,0,0,0,9.41,9.41l40-8a8,8,0,0,0,4.09-2.19L408,259.31V368H248a8,8,0,0,0-8,8v24H200v16h40v24a8,8,0,0,0,8,8H472a8,8,0,0,0,8-8V376A8,8,0,0,0,472,368ZM344,64V27.31L396.69,80H360A16,16,0,0,1,344,64ZM299.31,304,424,179.31,444.69,200,320,324.69ZM449.37,160a14.63,14.63,0,0,1,10.34,25L456,188.69,435.31,168l3.72-3.72A14.53,14.53,0,0,1,449.37,160ZM292.91,320.23l10.86,10.86L290.2,333.8ZM464,432H256V384h16v16h16V384h16v16h16V384h16v16h16V384h16v16h16V384h16v16h16V384h16v16h16V384h16Z"/></svg>