<?xml version="1.0" encoding="utf-8"?>
<!-- Generator: Adobe Illustrator 24.0.1, SVG Export Plug-In . SVG Version: 6.00 Build 0)  -->
<svg version="1.1" class="skill-icon" xmlns="http://www.w3.org/2000/svg" xmlns:xlink="http://www.w3.org/1999/xlink" x="0px" y="0px"
	 viewBox="0 0 480 480" style="enable-background:new 0 0 480 480;" xml:space="preserve">
<path class="st0" d="M13.7,242.3c-3.1-3.1-8.2-3.1-11.3,0C0.8,243.8,0,245.9,0,248v224c0,4.4,3.6,8,8,8h224c4.4,0,8-3.6,8-8
	c0-2.1-0.8-4.2-2.3-5.7L13.7,242.3z M16,464V267.3L212.7,464H16z"/>
<path class="st0" d="M56,432h64c4.4,0,8-3.6,8-8c0-2.1-0.8-4.2-2.3-5.7l-64-64c-3.1-3.1-8.2-3.1-11.3,0c-1.5,1.5-2.3,3.5-2.3,5.7v64
	C48,428.4,51.6,432,56,432z M64,379.3l36.7,36.7H64V379.3z"/>
<rect x="88" y="32" class="st0" width="16" height="16"/>
<rect x="120" y="32" class="st0" width="16" height="16"/>
<rect x="152" y="32" class="st0" width="16" height="16"/>
<path class="st0" d="M164.8,144.7c-2.9,1.3-4.8,4.1-4.8,7.3v88c0,3.2,1.9,6,4.8,7.3l72,32c2.1,0.9,4.4,0.9,6.5,0l0,0l72-32
	c2.9-1.3,4.7-4.1,4.8-7.3v-88c0-3.2-1.8-6-4.8-7.3l0,0l-72-32c-2.1-0.9-4.4-0.9-6.5,0L164.8,144.7L164.8,144.7z M232,259.7l-56-24.9
	v-70.5l56,24.9V259.7z M304,234.8l-56,24.9v-70.5l56-24.9V234.8z M240,128.8l52.3,23.2L240,175.2L187.7,152L240,128.8z"/>
<rect x="232" y="304" class="st0" width="16" height="40"/>
<rect x="232" y="56" class="st0" width="16" height="40"/>
<rect x="112.8" y="117.4" transform="matrix(0.431 -0.9024 0.9024 0.431 -54.0138 186.3556)" class="st0" width="16" height="37.1"/>
<rect x="340.7" y="128" transform="matrix(0.9024 -0.431 0.431 0.9024 -23.5369 168.1084)" class="st0" width="37.1" height="16"/>
<rect x="102.2" y="256" transform="matrix(0.9024 -0.431 0.431 0.9024 -101.9943 77.8167)" class="st0" width="37.1" height="16"/>
<path class="st0" d="M472,368h-48V243.3l47-47c12.3-11.6,13-31,1.4-43.3c-11.6-12.3-31-13-43.3-1.4c-0.5,0.4-0.9,0.9-1.4,1.4l0,0
	l-3.7,3.7V88c0-2.1-0.8-4.2-2.3-5.7l-80-80C340.2,0.8,338.1,0,336,0H88C70.3,0,56,14.3,56,32v232h16V32c0-8.8,7.2-16,16-16h240v48
	c0,17.7,14.3,32,32,32h48v76.7L282.3,298.3c-1.1,1.1-1.9,2.5-2.2,4.1l-8,40c-0.9,4.3,1.9,8.5,6.3,9.4c1,0.2,2.1,0.2,3.1,0l40-8
	c1.5-0.3,3-1.1,4.1-2.2l82.4-82.3V368H248c-4.4,0-8,3.6-8,8v24h-40v16h40v24c0,4.4,3.6,8,8,8h224c4.4,0,8-3.6,8-8v-64
	C480,371.6,476.4,368,472,368z M344,64V27.3L396.7,80H360C351.2,80,344,72.8,344,64z M299.3,304L424,179.3l20.7,20.7L320,324.7
	L299.3,304z M449.4,160c8.1,0,14.6,6.5,14.7,14.6c0,3.9-1.5,7.6-4.3,10.4l-3.7,3.7L435.3,168l3.7-3.7
	C441.8,161.5,445.5,160,449.4,160z M292.9,320.2l10.9,10.9l-13.6,2.7L292.9,320.2z M464,432H256v-48h16v16h16v-16h16v16h16v-16h16
	v16h16v-16h16v16h16v-16h16v16h16v-16h16v16h16v-16h16V432z"/>
</svg>
