<svg id="Layer_1" data-name="Layer 1" xmlns="http://www.w3.org/2000/svg" viewBox="0 0 480 480"><defs><style>.cls-1{fill:#be450f;}</style></defs><title>Artboard 1</title><path class="cls-1" d="M480,96a40,40,0,0,0-40-40h-8V72h8a24,24,0,0,1,24,24V320H16V96A24,24,0,0,1,40,72h8V56H40A40,40,0,0,0,0,96V328H0v24a40,40,0,0,0,40,40H188.58l-26.19,72H136v16H344V464h-26.4l-26.16-72H440a40,40,0,0,0,40-40V328ZM300.56,464H179.41l26.17-72h68.79ZM440,376H40a24,24,0,0,1-24-24V336H464v16A24,24,0,0,1,440,376Z"/><path class="cls-1" d="M416,304V88c0-.18-.09-.34-.1-.53a7.85,7.85,0,0,0-.4-2,6.63,6.63,0,0,0-.28-.8,7.91,7.91,0,0,0-1.52-2.27v-.06l-80-80a7.88,7.88,0,0,0-2.4-1.6c-.22-.1-.45-.16-.68-.24a7.73,7.73,0,0,0-2.17-.43A4,4,0,0,1,328,0H88A24,24,0,0,0,64,24V304H80V24a8,8,0,0,1,8-8H320V64a32,32,0,0,0,32,32h48V304ZM352,80a16,16,0,0,1-16-16V27.33L388.66,80Z"/><rect class="cls-1" x="95.99" y="32.02" width="16" height="16"/><rect class="cls-1" x="127.99" y="32.02" width="16" height="16"/><rect class="cls-1" x="159.99" y="32.02" width="16" height="16"/><path class="cls-1" d="M352,160.41a24,24,0,1,0-22.53-32H271a31.88,31.88,0,0,0-62,0H150.52a24,24,0,1,0,0,16h31.75a111.28,111.28,0,0,0-53.06,80H120a8,8,0,0,0-8,8v32a8,8,0,0,0,8,8h32a8,8,0,0,0,8-8v-32a8,8,0,0,0-8-8h-6.66A95.42,95.42,0,0,1,210.78,149a32,32,0,0,0,20,17.52L186,218.8a8,8,0,0,0-1.74,6.94l16,72A8,8,0,0,0,208,304h64a8,8,0,0,0,7.81-6.26l16-72A8,8,0,0,0,294,218.8l-44.8-52.32a32,32,0,0,0,20-17.52,95.42,95.42,0,0,1,65.46,75.44H328a8,8,0,0,0-8,8v32a8,8,0,0,0,8,8h32a8,8,0,0,0,8-8v-32a8,8,0,0,0-8-8h-9.22a111.28,111.28,0,0,0-53.06-80h31.75A24,24,0,0,0,352,160.41Zm0-32a8,8,0,1,1-8,8A8,8,0,0,1,352,128.42Zm-224,16a8,8,0,1,1,8-8A8,8,0,0,1,128,144.42Zm16,112H128v-16h16ZM279.3,226.17,265.58,288h-51.2l-13.74-61.83L232,189.6v36.6a16,16,0,1,0,16,0V189.6ZM240,152a16,16,0,1,1,16-16A16,16,0,0,1,240,152Zm96,88.4h16v16H336Z"/></svg>