<?xml version="1.0" encoding="utf-8"?>
<!-- Generator: Adobe Illustrator 20.1.0, SVG Export Plug-In . SVG Version: 6.00 Build 0)  -->
<svg version="1.1" id="Layer_1" xmlns="http://www.w3.org/2000/svg" xmlns:xlink="http://www.w3.org/1999/xlink" x="0px" y="0px"
	 viewBox="0 0 480 480" style="enable-background:new 0 0 480 480;" xml:space="preserve">
<style type="text/css">
	.st0{fill:#BE450F;}
</style>
<title>Artboard 2 copy 2</title>
<g>
	<path class="st0" d="M356.5,319.1l73.8-24.6c38.3-12.8,59-54.3,46.2-92.6c-10-29.8-37.9-49.9-69.3-50h-0.8
		c1.2-13.3,1.9-26.6,1.9-40.1c0-4.4-3.6-8-8-8H248v-8c0-22.1-17.9-40.1-40.1-40.1s-40.1,17.9-40.1,40.1v8H79.8c-4.4,0-8,3.6-8,8
		c0,80.1,21.8,158.7,63,227.3l3,5H7.7c-4.4,0-8,3.6-8,8c0,39.8,32.3,72.1,72.1,72.1h336.5c39.8,0,72.1-32.3,72.1-72.1
		c0-4.4-3.6-8-8-8H342.3l3-5C349.2,332.6,353,325.9,356.5,319.1z M397.6,208H409c8.4,0,15.3,6.9,15.2,15.3c0,6.6-4.2,12.4-10.4,14.5
		l-26.7,8.9C391.2,233.9,394.7,221,397.6,208z M407.2,167.9c31.6,0,57.2,25.6,57.2,57.2c0,24.6-15.7,46.5-39.1,54.2l-58.5,19.5
		c2.5-5.4,4.9-10.9,7.2-16.3l0.1-0.2c2.2-5.2,4.3-10.5,6.3-15.8l0.3-0.7l38.4-12.8c16.4-5.5,25.2-23.2,19.7-39.6
		c-4.3-12.7-16.2-21.3-29.6-21.3h-8.1c0.1-0.4,0.1-0.8,0.2-1.2c1.4-7.6,2.6-15.2,3.5-22.8H407.2z M183.9,95.8c0-13.3,10.8-24,24-24
		c13.3,0,24,10.8,24,24v8h-48.1V95.8z M408.2,408.2H71.8c-27.9,0-51.5-20.5-55.5-48.1h447.5C459.7,387.7,436.1,408.2,408.2,408.2z
		 M156.4,344.1l-7.9-13.2c-38.3-63.9-59.2-136.6-60.6-211.1h80v19.5L131.7,161c-2.4,1.4-3.9,4.1-3.9,6.9V248c0,4.4,3.6,8,8,8H216
		c4.4,0,8-3.6,8-8v-80.1c0-2.8-1.5-5.4-3.9-6.9l-36.2-21.7v-19.5h208.2c-0.2,13.1-1.1,26.1-2.6,39.1v0.1c-0.7,6.6-1.6,13.1-2.6,19.5
		c-0.1,0.5-0.2,0.9-0.2,1.4c-0.9,5.6-1.9,11.1-3,16.5c-4.1,20.4-9.8,40.5-16.8,60.1c0,0-0.1,0.1-0.1,0.1
		c-6.5,17.9-14.1,35.3-22.9,52.2v0.1c-3.9,7.4-8,14.8-12.3,22l-8,13.3H156.4z M175.9,153.2l32,19.2V240h-64.1v-67.6L175.9,153.2z"/>
</g>
</svg>
