<svg id="Layer_1" data-name="Layer 1" xmlns="http://www.w3.org/2000/svg" viewBox="0 0 480 480"><defs><style>.cls-1{fill:#be450f;}</style></defs><title>Artboard 2 copy</title><path class="cls-1" d="M48,32v80H64V32A16,16,0,0,1,80,16H400a16,16,0,0,1,16,16h16A32,32,0,0,0,400,0H80A32,32,0,0,0,48,32Z"/><path class="cls-1" d="M32,480H400a32,32,0,0,0,32-32V416H416v32a16,16,0,0,1-32,0V424a8,8,0,0,0-8-8H64V256H48V416H8a8,8,0,0,0-8,8v24A32,32,0,0,0,32,480ZM16,432H368v16a31.76,31.76,0,0,0,4.3,16H32a16,16,0,0,1-16-16Z"/><path class="cls-1" d="M8,240H168a8,8,0,0,0,8-8V136a8,8,0,0,0-8-8H8a8,8,0,0,0-8,8v96A8,8,0,0,0,8,240Zm8-96H160v80H16Z"/><path class="cls-1" d="M50.34,162.34l-16,16a8,8,0,0,0,0,11.31l16,16,11.31-11.31L51.31,184l10.34-10.34Z"/><path class="cls-1" d="M125.66,162.34l-11.31,11.31L124.69,184l-10.34,10.34,11.31,11.31,16-16a8,8,0,0,0,0-11.31Z"/><rect class="cls-1" x="62.7" y="176" width="50.6" height="16" transform="translate(-114.39 209.26) rotate(-71.56)"/><path class="cls-1" d="M472,48H200a8,8,0,0,0-8,8V216a8,8,0,0,0,8,8H472a8,8,0,0,0,8-8V56A8,8,0,0,0,472,48Zm-8,160H208V188.53l71.84-43.1,70,45.3a8,8,0,0,0,8,.38l57.91-30L464,188.64Zm0-37.78-44-25.16a8,8,0,0,0-7.65-.16L354.7,174.76l-70.32-45.48a8,8,0,0,0-8.46-.14L208,169.87V64H464Z"/><path class="cls-1" d="M380,136a28,28,0,1,0-28-28A28,28,0,0,0,380,136Zm0-40a12,12,0,1,1-12,12A12,12,0,0,1,380,96Z"/><path class="cls-1" d="M80,264v96a8,8,0,0,0,8,8H288a8,8,0,0,0,8-8V264a8,8,0,0,0-8-8H88A8,8,0,0,0,80,264Zm16,8H280v80H96Z"/><rect class="cls-1" x="112" y="288" width="32" height="16"/><rect class="cls-1" x="160" y="288" width="72" height="16"/><rect class="cls-1" x="248" y="288" width="16" height="16"/><rect class="cls-1" x="112" y="320" width="96" height="16"/><rect class="cls-1" x="224" y="320" width="40" height="16"/><rect class="cls-1" x="80" y="32" width="16" height="16"/><rect class="cls-1" x="112" y="32" width="16" height="16"/><rect class="cls-1" x="144" y="32" width="16" height="16"/><rect class="cls-1" x="80" y="64" width="96" height="16"/><path class="cls-1" d="M472,288H320a8,8,0,0,0-8,8v96a8,8,0,0,0,8,8H472a8,8,0,0,0,8-8V296A8,8,0,0,0,472,288Zm-8,96H328V304H464Z"/><rect class="cls-1" x="344" y="320" width="16" height="16"/><rect class="cls-1" x="344" y="352" width="16" height="16"/><rect class="cls-1" x="376" y="320" width="72" height="16"/><rect class="cls-1" x="376" y="352" width="72" height="16"/><rect class="cls-1" x="416" y="240" width="16" height="32"/></svg>